opsz8_wght100.ufo
<glyph name="A" format="2">
	<unicode hex="0041"/>
	<advance width="1328"/>
	<outline>
		<contour>
			<point x="-177.7445068359" y="0" type="line"/>
			<point x="-154.6045532227" y="89.9997558594" type="line"/>
			<point x="23.393737793" y="119.9997558594" type="line"/>
			<point x="318.603515625" y="610.1105957031" type="line"/>
			<point x="887.6729125977" y="1507" type="line"/>
			<point x="1045.1185913086" y="1499" type="line"/>
			<point x="1078.7224731445" y="655" type="line"/>
			<point x="1095.7420654297" y="130.9997558594" type="line"/>
			<point x="1252.7403564453" y="100.9997558594" type="line"/>
			<point x="1247.600402832" y="0" type="line"/>
			<point x="761.3147583008" y="0" type="line"/>
			<point x="766.4547119141" y="100.9997558594" type="line"/>
			<point x="935.4530029297" y="130.9997558594" type="line"/>
			<point x="922.9951171875" y="648" type="line"/>
			<point x="891" y="1166" type="line"/>
			<point x="886" y="1287" type="line"/>
			<point x="876" y="1287" type="line"/>
			<point x="799" y="1167" type="line"/>
			<point x="414.8453369141" y="560.6669921875" type="line"/>
			<point x="157.7235717773" y="119.9997558594" type="line"/>
			<point x="330.721862793" y="89.9997558594" type="line"/>
			<point x="317.5819091797" y="0" type="line"/>
		</contour>
		<contour>
			<point x="315.6318969727" y="502.5568847656" type="line"/>
			<point x="388.6210327148" y="625.33203125" type="line"/>
			<point x="660.1101074219" y="547.3310546875" type="line"/>
			<point x="615.1110839844" y="433.8911132812" type="line"/>
		</contour>
		<contour>
			<point x="660.1101074219" y="547.3310546875" type="line"/>
			<point x="1020.6267700195" y="626.9987792969" type="line"/>
			<point x="1007.6729736328" y="515.2233886719" type="line"/>
			<point x="615.1110839844" y="433.8911132812" type="line"/>
		</contour>
	</outline>
	<anchor name="bottom" x="523" y="0"/>
	<anchor name="ogonek" x="1098" y="0"/>
	<anchor name="top" x="954" y="1500"/>
	<anchor name="tonos" x="613" y="1500"/>
</glyph>
<glyph name="B" format="2">
	<unicode hex="0042"/>
	<advance width="1131"/>
	<outline>
		<contour>
			<point x="-57.5147094727" y="0" type="line"/>
			<point x="-47.3747558594" y="99.9997558594" type="line"/>
			<point x="136.6235351562" y="125.9997558594" type="line"/>
			<point x="268.483581543" y="767" type="line"/>
			<point x="386" y="1362" type="line"/>
			<point x="193" y="1386" type="line"/>
			<point x="206" y="1500" type="line"/>
			<point x="727.2697753906" y="1500" type="line" smooth="yes"/>
			<point x="909.0428466797" y="1500"/>
			<point x="1107.8967895508" y="1308"/>
			<point x="1096.0411987305" y="1163" type="qcurve" smooth="yes"/>
			<point x="1085.1856079102" y="1028"/>
			<point x="910.7133178711" y="833"/>
			<point x="805.4162597656" y="800" type="qcurve"/>
			<point x="804.4162597656" y="793" type="line"/>
			<point x="925.5780639648" y="769"/>
			<point x="1089.4636230469" y="565"/>
			<point x="1067.3192138672" y="413" type="qcurve" smooth="yes"/>
			<point x="1038.9196166992" y="215"/>
			<point x="733.4755249023" y="0"/>
			<point x="498.2838745117" y="0" type="qcurve" smooth="yes"/>
		</contour>
		<contour>
			<point x="306.0123901367" y="135.3308105469" type="line"/>
			<point x="326.1234741211" y="115.8862304688" type="line"/>
			<point x="479.7185058594" y="115.8862304688" type="line" smooth="yes"/>
			<point x="624.5917358398" y="115.8862304688"/>
			<point x="875.0952758789" y="264"/>
			<point x="898.3504638672" y="420" type="qcurve" smooth="yes"/>
			<point x="918.3504638672" y="556"/>
			<point x="757.2311401367" y="727.4460449219"/>
			<point x="609.0735473633" y="727.4460449219" type="qcurve" smooth="yes"/>
			<point x="416.4533081055" y="727.4460449219" type="line"/>
			<point x="411.6754760742" y="699.8903808594" type="line"/>
		</contour>
		<contour>
			<point x="443.7904663086" y="853.5546875" type="line"/>
			<point x="439.1237182617" y="832.33203125" type="line"/>
			<point x="585.9924316406" y="832.33203125" type="line" smooth="yes"/>
			<point x="709.1231079102" y="832.33203125"/>
			<point x="907.1367797852" y="1010"/>
			<point x="922.6056518555" y="1154" type="qcurve" smooth="yes"/>
			<point x="934.0745239258" y="1260"/>
			<point x="771.9957885742" y="1383.4475097656"/>
			<point x="662.7759399414" y="1383.4475097656" type="qcurve" smooth="yes"/>
			<point x="578" y="1380" type="line"/>
			<point x="549" y="1362" type="line"/>
		</contour>
	</outline>
	<anchor name="bottom" x="630" y="0"/>
	<anchor name="top" x="630" y="1500"/>
</glyph>
<glyph name="D" format="2">
	<unicode hex="0044"/>
	<advance width="1342"/>
	<outline>
		<contour>
			<point x="-68.9086303711" y="0" type="line"/>
			<point x="-52.7686767578" y="101.9997558594" type="line"/>
			<point x="138.2296142578" y="130.9997558594" type="line"/>
			<point x="265.3963012695" y="755" type="line"/>
			<point x="387.8897094727" y="1378.1602783203" type="line"/>
			<point x="176.3114013672" y="1405.1602783203" type="line"/>
			<point x="189.0913696289" y="1500" type="line"/>
			<point x="728.5238647461" y="1500" type="line" smooth="yes"/>
			<point x="1068.7586669922" y="1500"/>
			<point x="1372.3994750977" y="1068"/>
			<point x="1322.201965332" y="743" type="qcurve" smooth="yes"/>
			<point x="1272.7071533203" y="414"/>
			<point x="797.3655395508" y="0"/>
			<point x="513.1582641602" y="0" type="qcurve" smooth="yes"/>
		</contour>
		<contour>
			<point x="303.4229125977" y="138.7751464844" type="line"/>
			<point x="325.1057128906" y="133.1712036133"/>
			<point x="514.0125732422" y="116.7751464844"/>
			<point x="560.2294311523" y="116.7751464844" type="qcurve" smooth="yes"/>
			<point x="761.9829101562" y="116.7751464844"/>
			<point x="1106.1115112305" y="443.6655273438"/>
			<point x="1149.846496582" y="724" type="qcurve" smooth="yes"/>
			<point x="1194.3952636719" y="1004.556640625"/>
			<point x="1002.4096069336" y="1385.55859375"/>
			<point x="756.1534423828" y="1385.55859375" type="qcurve" smooth="yes"/>
			<point x="708.2537841797" y="1385.55859375"/>
			<point x="558.721496582" y="1371.55859375"/>
			<point x="539.9795532227" y="1368.55859375" type="qcurve"/>
			<point x="424.0056762695" y="754" type="line"/>
		</contour>
	</outline>
	<anchor name="bottom" x="686" y="0"/>
	<anchor name="center" x="448" y="754"/>
	<anchor name="top" x="827" y="1500"/>
	<anchor name="liga" x="1431" y="0"/>
</glyph>
<glyph name="E" format="2">
	<unicode hex="0045"/>
	<advance width="1142"/>
	<outline>
		<contour>
			<point x="-70.5451049805" y="0" type="line"/>
			<point x="-49.4051513672" y="99.9997558594" type="line"/>
			<point x="139.5931396484" y="129.9997558594" type="line"/>
			<point x="274.4531860352" y="806" type="line"/>
			<point x="380.6732177734" y="1374.1602783203" type="line"/>
			<point x="176.6749267578" y="1399.1602783203" type="line"/>
			<point x="191.4548950195" y="1500" type="line"/>
			<point x="1190.0369262695" y="1500" type="line"/>
			<point x="1157.1879272461" y="1160.0773925781" type="line"/>
			<point x="1063.2903442383" y="1160.0773925781" type="line"/>
			<point x="1027.8065795898" y="1389.6696777344" type="line"/>
			<point x="576.0364379883" y="1389.6696777344" type="line"/>
			<point x="541.0364379883" y="1363.6696777344" type="line"/>
			<point x="434.3692016602" y="794" type="line"/>
			<point x="310.5908813477" y="154.2194824219" type="line"/>
			<point x="344.5908813477" y="110.2194824219" type="line"/>
			<point x="872.3721313477" y="114.2194824219" type="line"/>
			<point x="997.1795043945" y="374.8117675781" type="line"/>
			<point x="1097.1770629883" y="374.8117675781" type="line"/>
			<point x="1007.1480102539" y="0" type="line"/>
		</contour>
		<contour>
			<point x="343" y="776" type="line"/>
			<point x="361" y="858" type="line"/>
			<point x="831.9065551758" y="854.9987792969" type="line"/>
			<point x="894.8790893555" y="1000.5910644531" type="line"/>
			<point x="988.8764038086" y="1000.5910644531" type="line"/>
			<point x="903.5985717773" y="549.96484375" type="line"/>
			<point x="804.6010131836" y="549.96484375" type="line"/>
			<point x="808.6846313477" y="734.5571289062" type="line"/>
		</contour>
	</outline>
	<anchor name="bottom" x="518" y="0"/>
	<anchor name="ogonek" x="827" y="0"/>
	<anchor name="top" x="789" y="1500"/>
	<anchor name="tonos" x="81" y="1500"/>
</glyph>
<glyph name="F" format="2">
	<unicode hex="0046"/>
	<advance width="1085"/>
	<outline>
		<contour>
			<point x="-61.5755004883" y="0" type="line"/>
			<point x="-43.435546875" y="100.9997558594" type="line"/>
			<point x="135.6227416992" y="130.9997558594" type="line"/>
			<point x="275.4227905273" y="806" type="line"/>
			<point x="376.1028442383" y="1375.1602783203" type="line"/>
			<point x="174.64453125" y="1400.1602783203" type="line"/>
			<point x="188.4244995117" y="1500" type="line"/>
			<point x="1154.448059082" y="1500" type="line"/>
			<point x="1126.0969848633" y="1192.9484863281" type="line"/>
			<point x="1024.0991821289" y="1192.9484863281" type="line"/>
			<point x="993.3396606445" y="1393.7805175781" type="line"/>
			<point x="574.5348510742" y="1390.7805175781" type="line"/>
			<point x="539.5348510742" y="1370.7805175781" type="line"/>
			<point x="430.6454467773" y="801" type="line"/>
			<point x="302.8453979492" y="129.9997558594" type="line"/>
			<point x="513.7836914062" y="99.9997558594" type="line"/>
			<point x="497.643737793" y="0" type="line"/>
		</contour>
		<contour>
			<point x="343.341003418" y="707.8901367188" type="line"/>
			<point x="364.0338745117" y="810.4431152344" type="line"/>
			<point x="832.6724243164" y="816.1096191406" type="line"/>
			<point x="902.3689575195" y="967.5922851562" type="line"/>
			<point x="988.3665161133" y="967.5922851562" type="line"/>
			<point x="915.4755249023" y="528.4077148438" type="line"/>
			<point x="825.4779663086" y="528.4077148438" type="line"/>
			<point x="825.2285766602" y="695.0014648438" type="line"/>
		</contour>
	</outline>
	<anchor name="bottom" x="578" y="0"/>
	<anchor name="top" x="622" y="1500"/>
</glyph>
<glyph name="G" format="2">
	<unicode hex="0047"/>
	<advance width="1438"/>
	<outline>
		<contour>
			<point x="109.5105309561" y="853" type="qcurve" smooth="yes"/>
			<point x="205.5105309561" y="1179"/>
			<point x="653.5237817008" y="1543.6189575195"/>
			<point x="916.6457909781" y="1519.5992431641" type="qcurve" smooth="yes"/>
			<point x="1027.0580834586" y="1510.5992431641"/>
			<point x="1199.4427880484" y="1472.3328857422"/>
			<point x="1268.3846825797" y="1444.5997314453" type="qcurve" smooth="yes"/>
			<point x="1298.2751244742" y="1434.5998535156" type="line"/>
			<point x="1347.9545678336" y="1420" type="line"/>
			<point x="1275.495339318" y="1069.4077148438" type="line"/>
			<point x="1166.6979760367" y="1069.4077148438" type="line"/>
			<point x="1181.3581322867" y="1288.759765625" type="line"/>
			<point x="1146.7858666617" y="1330.1928710938"/>
			<point x="980.3447655875" y="1394.9141845703"/>
			<point x="914.1050805289" y="1400.1583251953" type="qcurve" smooth="yes"/>
			<point x="706.5409936148" y="1414.0889282227"/>
			<point x="372.0124840811" y="1133"/>
			<point x="282.0925622061" y="826" type="qcurve" smooth="yes"/>
			<point x="195.7765832022" y="521.1110839844"/>
			<point x="381.9914941031" y="141.3082275391"/>
			<point x="547.4736108023" y="106.7528076172" type="qcurve" smooth="yes"/>
			<point x="665.627785607" y="82.4195556641"/>
			<point x="956.4474877555" y="139.1081542969"/>
			<point x="1025.8632592398" y="198.3295898438" type="qcurve"/>
			<point x="1108.7751244742" y="559.8802490234" type="line"/>
			<point x="891.2568139273" y="584.940246582" type="line"/>
			<point x="904.9767846305" y="690" type="line"/>
			<point x="1460.5026635367" y="690" type="line"/>
			<point x="1444.6626977164" y="583.8802490234" type="line"/>
			<point x="1277.3044213492" y="558.8802490234" type="line"/>
			<point x="1187.0239037711" y="165.7578125" type="line"/>
			<point x="1174.7688988883" y="136.87890625" type="line"/>
			<point x="1100.3011254508" y="55.6530761719"/>
			<point x="729.6775292594" y="-43.7991943359"/>
			<point x="514.4169701773" y="-14.7991943359" type="qcurve" smooth="yes"/>
			<point x="259.065651818" y="20.2008056641"/>
			<point x="2.5105309561" y="489"/>
		</contour>
	</outline>
	<anchor name="bottom" x="667" y="0"/>
	<anchor name="top" x="907" y="1492"/>
</glyph>
<glyph name="H" format="2">
	<unicode hex="0048"/>
	<advance width="1558"/>
	<outline>
		<contour>
			<point x="-70.3934326172" y="0" type="line"/>
			<point x="-46.2534790039" y="99.9997558594" type="line"/>
			<point x="142.7448120117" y="130.9997558594" type="line"/>
			<point x="276.6048583984" y="806" type="line"/>
			<point x="384.1649169922" y="1374.5003051758" type="line"/>
			<point x="179.8865966797" y="1400.1002807617" type="line"/>
			<point x="191.6065673828" y="1500" type="line"/>
			<point x="751.9058837891" y="1500" type="line"/>
			<point x="732.5859375" y="1401.1002807617" type="line"/>
			<point x="546.4676513672" y="1374.5003051758" type="line"/>
			<point x="432.9075927734" y="777" type="line"/>
			<point x="311.0475463867" y="130.9997558594" type="line"/>
			<point x="506.4458618164" y="99.9997558594" type="line"/>
			<point x="490.9058837891" y="0" type="line"/>
		</contour>
		<contour>
			<point x="346" y="738" type="line"/>
			<point x="367" y="855" type="line"/>
			<point x="785.0212402344" y="841.6650390625" type="line"/>
			<point x="1221.5362548828" y="845.109375" type="line"/>
			<point x="1196.2034912109" y="726.8901367188" type="line"/>
			<point x="757.9106445312" y="738.3344726562" type="line"/>
		</contour>
		<contour>
			<point x="813.9002685547" y="0" type="line"/>
			<point x="836.040222168" y="99.9997558594" type="line"/>
			<point x="1030.0385131836" y="130.9997558594" type="line"/>
			<point x="1152.8985595703" y="772" type="line"/>
			<point x="1257.4586181641" y="1374.5003051758" type="line"/>
			<point x="1064.1802978516" y="1401.1002807617" type="line"/>
			<point x="1075.9002685547" y="1501" type="line"/>
			<point x="1632.1995849609" y="1501" type="line"/>
			<point x="1604.8796386719" y="1401.1002807617" type="line"/>
			<point x="1426.7613525391" y="1374.5003051758" type="line"/>
			<point x="1310.8145751953" y="755" type="line"/>
			<point x="1194.9545288086" y="130.9997558594" type="line"/>
			<point x="1389.3528442383" y="99.9997558594" type="line"/>
			<point x="1373.8128662109" y="0" type="line"/>
		</contour>
	</outline>
	<anchor name="bottom" x="607" y="0"/>
	<anchor name="center" x="820" y="1079"/>
	<anchor name="top" x="950" y="1500"/>
	<anchor name="tonos" x="81" y="1500"/>
	<anchor name="cy_descender" x="1399" y="100"/>
</glyph>
<glyph name="I" format="2">
	<unicode hex="0049"/>
	<advance width="632"/>
	<outline>
		<contour>
			<point x="-68.696472168" y="0" type="line"/>
			<point x="-50.5565185547" y="98.1197509766" type="line"/>
			<point x="138.4417724609" y="129.1197509766" type="line"/>
			<point x="277.6084594727" y="806" type="line"/>
			<point x="381.9818725586" y="1375.1602783203" type="line"/>
			<point x="183.5235595703" y="1401.1602783203" type="line"/>
			<point x="195.303527832" y="1500" type="line"/>
			<point x="744.8294067383" y="1500" type="line"/>
			<point x="725.4494628906" y="1401.1602783203" type="line"/>
			<point x="548.451171875" y="1375.1602783203" type="line"/>
			<point x="436.8311157227" y="790" type="line"/>
			<point x="311.9710693359" y="129.1197509766" type="line"/>
			<point x="507.9693603516" y="98.1197509766" type="line"/>
			<point x="494.8294067383" y="0" type="line"/>
		</contour>
	</outline>
	<anchor name="bottom" x="220" y="0"/>
	<anchor name="ogonek" x="356" y="0"/>
	<anchor name="top" x="503" y="1500"/>
	<anchor name="tonos" x="81" y="1500"/>
	<anchor name="yu_dash" x="365" y="795"/>
	<anchor name="liga" x="712" y="0"/>
</glyph>
<glyph name="J" format="2">
	<unicode hex="004A"/>
	<advance width="686"/>
	<outline>
		<contour>
			<point x="-170.9222412109" y="-223.3315429688" type="qcurve"/>
			<point x="-142.2564697266" y="-105.0014648438" type="line"/>
			<point x="-118.7218017578" y="-117.5571289062"/>
			<point x="-45.2708129883" y="-135.4460449219"/>
			<point x="-6.4990844727" y="-135.4460449219" type="qcurve" smooth="yes"/>
			<point x="83.3618164062" y="-135.4460449219"/>
			<point x="142.0899658203" y="-1"/>
			<point x="171.0899658203" y="151" type="qcurve" smooth="yes"/>
			<point x="287.0899658203" y="754" type="line"/>
			<point x="402.7700195312" y="1377.1602783203" type="line"/>
			<point x="201.8316040039" y="1403.1602783203" type="line"/>
			<point x="219.6115722656" y="1500" type="line"/>
			<point x="772.8308105469" y="1500" type="line"/>
			<point x="747.0508422852" y="1403.1602783203" type="line"/>
			<point x="570.9926757812" y="1377.1602783203" type="line"/>
			<point x="447.3126220703" y="754" type="line"/>
			<point x="341.3126220703" y="176" type="line" smooth="yes"/>
			<point x="295.3126220703" y="-74"/>
			<point x="132.2697753906" y="-266.3315429688"/>
			<point x="15.5536499023" y="-266.3315429688" type="qcurve" smooth="yes"/>
			<point x="-65.3380126953" y="-266.3315429688"/>
			<point x="-145.9149169922" y="-236.9982910156"/>
		</contour>
	</outline>
	<anchor name="bottom" x="376" y="-208"/>
	<anchor name="top" x="533" y="1500"/>
	<anchor name="_liga" x="0" y="0"/>
</glyph>
<glyph name="K" format="2">
	<unicode hex="004B"/>
	<advance width="1132"/>
	<outline>
		<contour>
			<point x="-59.7934570312" y="0" type="line"/>
			<point x="-41.2534790039" y="100.9997558594" type="line"/>
			<point x="144.7448120117" y="130.9997558594" type="line"/>
			<point x="277.2048339844" y="806" type="line"/>
			<point x="387.4248657227" y="1375.1602783203" type="line"/>
			<point x="181.426574707" y="1401.1602783203" type="line"/>
			<point x="192.2065429688" y="1500" type="line"/>
			<point x="759.87890625" y="1500" type="line"/>
			<point x="742.0989379883" y="1401.1602783203" type="line"/>
			<point x="553.1006469727" y="1375.1602783203" type="line"/>
			<point x="439.0407714844" y="790" type="line"/>
			<point x="315.7272338867" y="130.9997558594" type="line"/>
			<point x="509.7255249023" y="100.9997558594" type="line"/>
			<point x="496.185546875" y="0" type="line"/>
		</contour>
		<contour>
			<point x="338.951965332" y="512.3929443359" type="line"/>
			<point x="374.0936889648" y="694.8876953125" type="line"/>
			<point x="952.1525878906" y="1379.1602783203" type="line"/>
			<point x="816.154296875" y="1403.1602783203" type="line"/>
			<point x="830.9342651367" y="1500" type="line"/>
			<point x="1266.926940918" y="1500" type="line"/>
			<point x="1250.1469726562" y="1403.1602783203" type="line"/>
			<point x="1105.1486816406" y="1378.1602783203" type="line"/>
		</contour>
		<contour>
			<point x="564.7127685547" y="845.6416015625" type="line"/>
			<point x="696.283203125" y="973.1994628906" type="line"/>
			<point x="1006.0388793945" y="116.9997558594" type="line"/>
			<point x="1167.0371704102" y="89.9997558594" type="line"/>
			<point x="1154.4971923828" y="0" type="line"/>
			<point x="658.2115478516" y="0" type="line"/>
			<point x="670.7515258789" y="89.9997558594" type="line"/>
			<point x="823.7498168945" y="116.9997558594" type="line"/>
		</contour>
	</outline>
	<anchor name="bottom" x="607" y="0"/>
	<anchor name="top" x="896" y="1500"/>
	<anchor name="kai_tail" x="1201" y="100"/>
</glyph>
<glyph name="L" format="2">
	<unicode hex="004C"/>
	<advance width="1073"/>
	<outline>
		<contour>
			<point x="-73.1207885742" y="0" type="line"/>
			<point x="-45.5208129883" y="96.9997558594" type="line"/>
			<point x="133.4774780273" y="126.9997558594" type="line"/>
			<point x="274.0574951172" y="806" type="line"/>
			<point x="378.1575317383" y="1385.2202758789" type="line"/>
			<point x="179.1592407227" y="1401.2202758789" type="line"/>
			<point x="189.8792114258" y="1500" type="line"/>
			<point x="754.405090332" y="1500" type="line"/>
			<point x="737.6851196289" y="1401.2202758789" type="line"/>
			<point x="541.6868286133" y="1385.2202758789" type="line"/>
			<point x="424.5867919922" y="754" type="line"/>
			<point x="308.0885009766" y="144.2194824219" type="line"/>
			<point x="337.0885009766" y="117.2194824219" type="line"/>
			<point x="789.2585449219" y="117.2194824219" type="line"/>
			<point x="959.8791503906" y="389.9439697266" type="line"/>
			<point x="1061.9764404297" y="389.9439697266" type="line"/>
			<point x="907.9127197266" y="0" type="line"/>
		</contour>
	</outline>
	<anchor name="bottom" x="535" y="0"/>
	<anchor name="centerright" x="755" y="750"/>
	<anchor name="top" x="878" y="1500"/>
	<anchor name="topright" x="804" y="1001"/>
	<anchor name="center" x="397" y="750"/>
	<anchor name="liga" x="1104" y="0"/>
</glyph>
<glyph name="M" format="2">
	<unicode hex="004D"/>
	<advance width="1833"/>
	<outline>
		<contour>
			<point x="-76.5755004883" y="0" type="line"/>
			<point x="-61.0355224609" y="99.9997558594" type="line"/>
			<point x="130.9627685547" y="129.9997558594" type="line"/>
			<point x="256.6560058594" y="753" type="line"/>
			<point x="377.6428222656" y="1374.1602783203" type="line"/>
			<point x="180.64453125" y="1400.1602783203" type="line"/>
			<point x="205.4244995117" y="1500" type="line"/>
			<point x="629.7634887695" y="1500" type="line"/>
			<point x="715.5481567383" y="819.6860961914" type="line"/>
			<point x="815" y="327" type="line"/>
			<point x="831" y="213" type="line"/>
			<point x="841" y="213" type="line"/>
			<point x="900" y="327" type="line"/>
			<point x="1126.3749389648" y="819.2653808594" type="line"/>
			<point x="1477.1726074219" y="1500" type="line"/>
			<point x="1895.725769043" y="1500" type="line"/>
			<point x="1876.4658203125" y="1400.1602783203" type="line"/>
			<point x="1697.4675292969" y="1372.1602783203" type="line"/>
			<point x="1581.6473999023" y="754" type="line"/>
			<point x="1465.3475341797" y="129.9997558594" type="line"/>
			<point x="1653.3458251953" y="99.9997558594" type="line"/>
			<point x="1639.805847168" y="0" type="line"/>
			<point x="1083.2799682617" y="0" type="line"/>
			<point x="1096.8199462891" y="99.9997558594" type="line"/>
			<point x="1298.8182373047" y="129.9997558594" type="line"/>
			<point x="1423.0380249023" y="753" type="line"/>
			<point x="1580" y="1244" type="line"/>
			<point x="1606" y="1363" type="line"/>
			<point x="1597" y="1365" type="line"/>
			<point x="1539" y="1258" type="line"/>
			<point x="1211.8087768555" y="744.1741943359" type="line"/>
			<point x="808.2587280273" y="-7" type="line"/>
			<point x="672.483581543" y="-7" type="line"/>
			<point x="561.3581542969" y="791.9277954102" type="line"/>
			<point x="499" y="1249" type="line"/>
			<point x="485" y="1357" type="line"/>
			<point x="474" y="1355" type="line"/>
			<point x="456" y="1235" type="line"/>
			<point x="369.9755249023" y="753" type="line"/>
			<point x="257.2265625" y="129.9997558594" type="line"/>
			<point x="449.2248535156" y="99.9997558594" type="line"/>
			<point x="436.0848999023" y="0" type="line"/>
		</contour>
	</outline>
	<anchor name="bottom" x="768" y="0"/>
	<anchor name="top" x="1048" y="1500"/>
</glyph>
<glyph name="N" format="2">
	<unicode hex="004E"/>
	<advance width="1436"/>
	<outline>
		<contour>
			<point x="-86.5755004883" y="0" type="line"/>
			<point x="-67.0355224609" y="101.9997558594" type="line"/>
			<point x="117.9627685547" y="126.9997558594" type="line"/>
			<point x="241.4227905273" y="753" type="line"/>
			<point x="363.6428222656" y="1382.1602783203" type="line"/>
			<point x="170.64453125" y="1395.1602783203" type="line"/>
			<point x="196.4244995117" y="1500" type="line"/>
			<point x="576.3528442383" y="1500" type="line"/>
			<point x="829.8994140625" y="789.6763305664" type="line"/>
			<point x="958" y="418" type="line"/>
			<point x="990" y="317" type="line"/>
			<point x="1001" y="319" type="line"/>
			<point x="1024" y="440" type="line"/>
			<point x="1128.5250244141" y="770" type="line"/>
			<point x="1239.6250610352" y="1374.1002807617" type="line"/>
			<point x="1037.6267700195" y="1400.1002807617" type="line"/>
			<point x="1056.5267333984" y="1500" type="line"/>
			<point x="1560.4095458984" y="1500" type="line"/>
			<point x="1542.5095825195" y="1399.1002807617" type="line"/>
			<point x="1359.5112915039" y="1373.1002807617" type="line"/>
			<point x="1235.4112548828" y="753" type="line"/>
			<point x="1091.4112548828" y="-4" type="line"/>
			<point x="926.8140869141" y="-4" type="line"/>
			<point x="678.9623413086" y="714.9010620117" type="line"/>
			<point x="507" y="1220" type="line"/>
			<point x="471" y="1324" type="line"/>
			<point x="461" y="1321" type="line"/>
			<point x="442" y="1199" type="line"/>
			<point x="353.1979370117" y="755" type="line"/>
			<point x="238.7379150391" y="129.9997558594" type="line"/>
			<point x="447.7362060547" y="100.9997558594" type="line"/>
			<point x="424.1962280273" y="0" type="line"/>
		</contour>
	</outline>
	<anchor name="bottom" x="640" y="0"/>
	<anchor name="top" x="884" y="1500"/>
	<anchor name="engtail" x="1041" y="0"/>
	<anchor name="liga" x="1432" y="0"/>
</glyph>
<glyph name="O" format="2">
	<unicode hex="004F"/>
	<advance width="1509"/>
	<outline>
		<contour>
			<point x="104.9985351562" y="885" type="qcurve" smooth="yes"/>
			<point x="198.9985351562" y="1247"/>
			<point x="709.2172241211" y="1559.625"/>
			<point x="995.6299438477" y="1514.638671875" type="qcurve" smooth="yes"/>
			<point x="1261.1748046875" y="1471.5629272461"/>
			<point x="1504.2774658203" y="969.306640625"/>
			<point x="1409.5444946289" y="636" type="qcurve" smooth="yes"/>
			<point x="1303.0194091797" y="260"/>
			<point x="842.9430541992" y="-73.6878051758"/>
			<point x="524.7496337891" y="-20.8386230469" type="qcurve" smooth="yes"/>
			<point x="268.5553588867" y="24.2184448242"/>
			<point x="1.9985351562" y="490"/>
		</contour>
		<contour>
			<point x="274.9672851562" y="860" type="qcurve" smooth="yes"/>
			<point x="190.6049194336" y="530.2701416016"/>
			<point x="347.82421875" y="135.158203125"/>
			<point x="545.3045654297" y="94.158203125" type="qcurve" smooth="yes"/>
			<point x="763.6231689453" y="49.158203125"/>
			<point x="1144.9663696289" y="328.5072021484"/>
			<point x="1229.3491821289" y="644" type="qcurve" smooth="yes"/>
			<point x="1311.7426757812" y="952.4248046875"/>
			<point x="1138.1251831055" y="1360.5307617188"/>
			<point x="940.0642700195" y="1393.5307617188" type="qcurve" smooth="yes"/>
			<point x="718.0679321289" y="1429.5307617188"/>
			<point x="354.1091308594" y="1169.0012207031"/>
		</contour>
	</outline>
	<anchor name="bottom" x="612" y="0"/>
	<anchor name="center" x="765" y="756"/>
	<anchor name="ogonek" x="844" y="0"/>
	<anchor name="top" x="906" y="1500"/>
	<anchor name="topright" x="1044" y="1500"/>
	<anchor name="tonos" x="230" y="1500"/>
	<anchor name="_yu_dash" x="174" y="795"/>
</glyph>
<glyph name="Q" format="2">
	<unicode hex="0051"/>
	<advance width="1507"/>
	<outline>
		<contour>
			<point x="104.9985351562" y="885" type="qcurve" smooth="yes"/>
			<point x="198.9985351562" y="1247"/>
			<point x="710.4053955078" y="1563.5855712891"/>
			<point x="996.8181152344" y="1518.5992431641" type="qcurve" smooth="yes"/>
			<point x="1262.3629760742" y="1475.5234985352"/>
			<point x="1504.9801635742" y="969"/>
			<point x="1409.5444946289" y="636" type="qcurve" smooth="yes"/>
			<point x="1302.7127685547" y="260"/>
			<point x="825.0974731445" y="-64.3376464844"/>
			<point x="528.7518310547" y="-15.9986572266" type="qcurve" smooth="yes"/>
			<point x="285.4233398438" y="26.0814208984"/>
			<point x="1.9985351562" y="490"/>
		</contour>
		<contour>
			<point x="274.9672851562" y="860" type="qcurve" smooth="yes"/>
			<point x="190.8992919922" y="530.2701416016"/>
			<point x="349.1177368164" y="138.6651611328"/>
			<point x="546.9529418945" y="97.6651611328" type="qcurve" smooth="yes"/>
			<point x="765.2715454102" y="52.6651611328"/>
			<point x="1143.9692993164" y="328.5580444336"/>
			<point x="1229.3491821289" y="644" type="qcurve" smooth="yes"/>
			<point x="1312.7397460938" y="952.3231201172"/>
			<point x="1139.3133544922" y="1364.4913330078"/>
			<point x="941.2524414062" y="1397.4913330078" type="qcurve" smooth="yes"/>
			<point x="719.2561035156" y="1433.4913330078"/>
			<point x="353.8147583008" y="1169.0012207031"/>
		</contour>
		<contour>
			<point x="382" y="-3" type="qcurve"/>
			<point x="758.5807495117" y="-338.3957519531" type="line" smooth="yes"/>
			<point x="811.2972412109" y="-365.8908081055"/>
			<point x="959.4620361328" y="-264.005065918"/>
			<point x="1032.6578369141" y="-143.2399291992" type="qcurve"/>
			<point x="1116.1004638672" y="-191.682800293" type="line"/>
			<point x="1042.1004638672" y="-362.682800293"/>
			<point x="853.3678588867" y="-507.1125488281"/>
			<point x="730.6217651367" y="-507.0988769531" type="qcurve"/>
			<point x="382.3969726562" y="-258.9563598633" type="line"/>
			<point x="292.4406738281" y="-246.8840942383"/>
			<point x="167.9580078125" y="-296.7451171875"/>
			<point x="113.7944335938" y="-375.3315429688" type="qcurve"/>
			<point x="45.7956542969" y="-315" type="line"/>
			<point x="86.3288574219" y="-227.693359375"/>
			<point x="296" y="5"/>
		</contour>
		<contour>
			<point x="320" y="-53" type="line"/>
			<point x="426" y="75"/>
			<point x="442.4488525391" y="200.2214355469"/>
			<point x="439.4486083984" y="203.7768554688" type="qcurve" smooth="yes"/>
			<point x="445.5599365234" y="211.666015625"/>
			<point x="654" y="332"/>
			<point x="458.5599365234" y="229.3327636719" type="qcurve"/>
			<point x="475.3370361328" y="221.2219238281"/>
			<point x="538.8914794922" y="182.6672363281"/>
			<point x="548.2244873047" y="172.2231445312" type="qcurve"/>
			<point x="541.1134033203" y="162.7788085938"/>
			<point x="533.3355712891" y="152.0009765625"/>
			<point x="524.0020751953" y="142.8896484375" type="qcurve" smooth="yes"/>
			<point x="540.1134033203" y="155.4450683594"/>
			<point x="506" y="28"/>
			<point x="401" y="-88" type="qcurve"/>
		</contour>
	</outline>
	<anchor name="bottom" x="832" y="0"/>
	<anchor name="top" x="832" y="1500"/>
</glyph>
<glyph name="T" format="2">
	<unicode hex="0054"/>
	<advance width="1152"/>
	<outline>
		<contour>
			<point x="46.9619140625" y="1114.6730957031" type="line"/>
			<point x="122.6182861328" y="1500" type="line"/>
			<point x="1287.7343139648" y="1500" type="line"/>
			<point x="1222.0779418945" y="1114.6730957031" type="line"/>
			<point x="1122.0803833008" y="1114.6730957031" type="line"/>
			<point x="1148.4052124023" y="1399.6696777344" type="line"/>
			<point x="787.9805908203" y="1399.6696777344" type="line"/>
			<point x="765.9805908203" y="1379.6696777344" type="line"/>
			<point x="652.2332763672" y="754" type="line"/>
			<point x="533.4332275391" y="126.9997558594" type="line"/>
			<point x="730.7115478516" y="96.9997558594" type="line"/>
			<point x="716.2315673828" y="0" type="line"/>
			<point x="162.7857666016" y="0" type="line"/>
			<point x="176.2657470703" y="97.9997558594" type="line"/>
			<point x="365.9840087891" y="126.9997558594" type="line"/>
			<point x="488.7039794922" y="754" type="line"/>
			<point x="606.4512939453" y="1379.6696777344" type="line"/>
			<point x="602.4512939453" y="1399.6696777344" type="line"/>
			<point x="226.2818603516" y="1399.6696777344" type="line"/>
			<point x="144.9594726562" y="1114.6730957031" type="line"/>
		</contour>
	</outline>
	<anchor name="bottom" x="451" y="0"/>
	<anchor name="center" x="584" y="750"/>
	<anchor name="top" x="732" y="1500"/>
	<anchor name="cy_descender" x="755" y="100"/>
</glyph>
<glyph name="V" format="2">
	<unicode hex="0056"/>
	<advance width="1186"/>
	<outline>
		<contour>
			<point x="-5.370300293" y="1395.1602783203" type="line"/>
			<point x="14.8896484375" y="1500" type="line"/>
			<point x="585.1983642578" y="1500" type="line"/>
			<point x="574.9384155273" y="1398.1602783203" type="line"/>
			<point x="369.4821777344" y="1375.1602783203" type="line"/>
			<point x="432.375" y="757.2132568359" type="line"/>
			<point x="438" y="390" type="line"/>
			<point x="442" y="261" type="line"/>
			<point x="460" y="261" type="line"/>
			<point x="527" y="390" type="line"/>
			<point x="788.8921508789" y="808.1653442383" type="line"/>
			<point x="1071.5872802734" y="1374.1602783203" type="line"/>
			<point x="885.1306762695" y="1398.1602783203" type="line"/>
			<point x="899.9106445312" y="1500" type="line"/>
			<point x="1378.4735107422" y="1500" type="line"/>
			<point x="1353.8046264648" y="1400.1602783203" type="line"/>
			<point x="1187.8684082031" y="1374.1602783203" type="line"/>
			<point x="882.3346557617" y="755.8340454102" type="line"/>
			<point x="504.0417480469" y="-7" type="line"/>
			<point x="358.8446044922" y="-7" type="line"/>
			<point x="283.0452880859" y="714.1012573242" type="line"/>
			<point x="216.1657714844" y="1375.1602783203" type="line"/>
		</contour>
	</outline>
	<anchor name="bottom" x="373" y="0"/>
	<anchor name="top" x="743" y="1500"/>
</glyph>
<glyph name="W" format="2">
	<unicode hex="0057"/>
	<advance width="1668"/>
	<outline>
		<contour>
			<point x="7.0474853516" y="1398.1602783203" type="line"/>
			<point x="19.4874267578" y="1500" type="line"/>
			<point x="517.1198730469" y="1500" type="line"/>
			<point x="503.6799316406" y="1399.1602783203" type="line"/>
			<point x="325.681640625" y="1376.1602783203" type="line"/>
			<point x="361.3008422852" y="782.3999023438" type="line"/>
			<point x="389.2712402344" y="363.4532470703" type="line"/>
			<point x="396.506652832" y="221.6021118164" type="line"/>
			<point x="401.0667724609" y="221.6021118164" type="line"/>
			<point x="475.9499511719" y="365.3003540039" type="line"/>
			<point x="599.1182250977" y="617.98828125" type="line"/>
			<point x="882.8209838867" y="1153.1610107422" type="line"/>
			<point x="869.6599121094" y="1374.6402587891" type="line"/>
			<point x="719.6616210938" y="1402.6402587891" type="line"/>
			<point x="726.9215698242" y="1500" type="line"/>
			<point x="1227.3272094727" y="1500" type="line"/>
			<point x="1221.0672607422" y="1402.1602783203" type="line"/>
			<point x="1023.0689697266" y="1375.1602783203" type="line"/>
			<point x="1076.2803955078" y="703.2548828125" type="line"/>
			<point x="1104.6253662109" y="363.0355224609" type="line"/>
			<point x="1113.2716064453" y="223.2954711914" type="line"/>
			<point x="1116.8317260742" y="223.2954711914" type="line"/>
			<point x="1179.4820556641" y="365.4513549805" type="line"/>
			<point x="1339.1954345703" y="758.9908447266" type="line"/>
			<point x="1594.3435058594" y="1372.1602783203" type="line"/>
			<point x="1435.3452148438" y="1401.1602783203" type="line"/>
			<point x="1454.1251831055" y="1500" type="line"/>
			<point x="1922.4906616211" y="1500" type="line"/>
			<point x="1897.7106933594" y="1401.1002807617" type="line"/>
			<point x="1723.7124023438" y="1371.1002807617" type="line"/>
			<point x="1434.9130859375" y="705.1276245117" type="line"/>
			<point x="1117.6031494141" y="-5" type="line"/>
			<point x="972.8217163086" y="-5" type="line"/>
			<point x="924.895324707" y="694.6103515625" type="line"/>
			<point x="902.724609375" y="987.737121582" type="line"/>
			<point x="896.724609375" y="987.737121582" type="line"/>
			<point x="700.6699829102" y="606.0477905273" type="line"/>
			<point x="401.469909668" y="-5" type="line"/>
			<point x="250.8364868164" y="-5" type="line"/>
			<point x="208.4512329102" y="745.6948242188" type="line"/>
			<point x="167.0457763672" y="1375.1602783203" type="line"/>
		</contour>
	</outline>
	<anchor name="bottom" x="691" y="0"/>
	<anchor name="top" x="981" y="1500"/>
</glyph>
<glyph name="X" format="2">
	<unicode hex="0058"/>
	<advance width="1174"/>
	<outline>
		<contour>
			<point x="-84.6469726562" y="0" type="line"/>
			<point x="-55.1069946289" y="97.9997558594" type="line"/>
			<point x="122.8912963867" y="127.9997558594" type="line"/>
			<point x="565.6047973633" y="739.749206543" type="line"/>
			<point x="294.2637329102" y="1384.1602783203" type="line"/>
			<point x="131.2654418945" y="1410.1602783203" type="line"/>
			<point x="135.0454101562" y="1500" type="line"/>
			<point x="647.7041015625" y="1500" type="line"/>
			<point x="643.9241333008" y="1410.1602783203" type="line"/>
			<point x="473.9258422852" y="1385.1602783203" type="line"/>
			<point x="627.1851196289" y="1028.5697631836" type="line"/>
			<point x="679.0642700195" y="906.7826538086" type="line"/>
			<point x="685.0642700195" y="906.7826538086" type="line"/>
			<point x="777.87890625" y="1032.1521606445" type="line"/>
			<point x="1023.9055175781" y="1380.1602783203" type="line"/>
			<point x="853.9072265625" y="1410.1602783203" type="line"/>
			<point x="871.6871948242" y="1500" type="line"/>
			<point x="1350.657409668" y="1500" type="line"/>
			<point x="1319.8774414062" y="1410.1602783203" type="line"/>
			<point x="1146.8791503906" y="1385.1602783203" type="line"/>
			<point x="712.7150878906" y="796.8552856445" type="line"/>
			<point x="996.7020874023" y="122.9997558594" type="line"/>
			<point x="1199.700378418" y="92.9997558594" type="line"/>
			<point x="1188.1604003906" y="0" type="line"/>
			<point x="656.1950683594" y="0" type="line"/>
			<point x="667.7350463867" y="92.9997558594" type="line"/>
			<point x="815.7333374023" y="122.9997558594" type="line"/>
			<point x="650.208190918" y="507.8414306641" type="line"/>
			<point x="598.7556762695" y="630.2818603516" type="line"/>
			<point x="592.7556762695" y="630.2818603516" type="line"/>
			<point x="499.0699462891" y="505.7124023438" type="line"/>
			<point x="234.1245117188" y="127.9997558594" type="line"/>
			<point x="417.1228027344" y="97.9997558594" type="line"/>
			<point x="397.582824707" y="0" type="line"/>
		</contour>
	</outline>
	<anchor name="bottom" x="453" y="0"/>
	<anchor name="top" x="723" y="1500"/>
	<anchor name="cy_descender" x="1125" y="100"/>
	<anchor name="center" x="591" y="791"/>
</glyph>
<glyph name="a" format="2">
	<unicode hex="0061"/>
	<advance width="1010"/>
	<outline>
		<contour>
			<point x="-6.7473144531" y="281" type="qcurve" smooth="yes"/>
			<point x="-6.7473144531" y="526.5729980469"/>
			<point x="365.8654733053" y="988.4076538086"/>
			<point x="579.2315011373" y="988.4076538086" type="qcurve" smooth="yes"/>
			<point x="624.3748116842" y="988.4076538086"/>
			<point x="701.7323608398" y="949.4076538086"/>
			<point x="721.4468383789" y="930.4076538086" type="qcurve"/>
			<point x="791.1117553711" y="1034.4076538086" type="line"/>
			<point x="828.7805786133" y="1034.4076538086" type="line"/>
			<point x="890.1672921529" y="884.4076538086" type="line"/>
			<point x="767.2142281881" y="389" type="line"/>
			<point x="731.0219064108" y="209" type="line"/>
			<point x="737.1812692037" y="158"/>
			<point x="770.1119332662" y="82"/>
			<point x="792.8519845358" y="40" type="qcurve"/>
			<point x="667.8004170513" y="-23" type="line"/>
			<point x="631.2745991802" y="31.7141113281"/>
			<point x="597.1369038677" y="140.1426391602"/>
			<point x="598.7613545513" y="198.2855834961" type="qcurve"/>
			<point x="497.2657490826" y="76.0317382812"/>
			<point x="295.5741597271" y="-20"/>
			<point x="212.7598286724" y="-20" type="qcurve" smooth="yes"/>
			<point x="107.6949483013" y="-20"/>
			<point x="-6.7473144531" y="128"/>
		</contour>
		<contour>
			<point x="158.6126098633" y="315.0004882812" type="qcurve" smooth="yes"/>
			<point x="156.6126098633" y="196.8100585938"/>
			<point x="215.1288400045" y="95.1815185547"/>
			<point x="278.017694985" y="95.1815185547" type="qcurve" smooth="yes"/>
			<point x="353.0189156881" y="95.1815185547"/>
			<point x="582.6559396139" y="242"/>
			<point x="619.4409810162" y="408" type="qcurve" smooth="yes"/>
			<point x="708.8866525045" y="791.5338745117" type="line"/>
			<point x="709.1757202148" y="829.5338745117"/>
			<point x="650.3427682272" y="886.1371459961"/>
			<point x="579.3421578756" y="886.1371459961" type="qcurve" smooth="yes"/>
			<point x="414.6907296529" y="886.1371459961"/>
			<point x="161.6126098633" y="514.5729980469"/>
		</contour>
	</outline>
	<anchor name="bottom" x="345" y="0"/>
	<anchor name="ogonek" x="732" y="0"/>
	<anchor name="top" x="608" y="1000"/>
</glyph>
<glyph name="c" format="2">
	<unicode hex="0063"/>
	<advance width="808"/>
	<outline>
		<contour>
			<point x="3.9497070312" y="465.0012207031" type="qcurve" smooth="yes"/>
			<point x="60.4736328125" y="706.2398681641"/>
			<point x="379.3363037109" y="1016.0024414062"/>
			<point x="561.5212402344" y="1016.0024414062" type="qcurve" smooth="yes"/>
			<point x="698.7269897461" y="1016.0024414062"/>
			<point x="828.8435058594" y="879.6848144531"/>
			<point x="828.8435058594" y="778.3513183594" type="qcurve" smooth="yes"/>
			<point x="828.8435058594" y="718.875"/>
			<point x="754.0051879883" y="640.7795410156"/>
			<point x="708.6748046875" y="625.7795410156" type="qcurve"/>
			<point x="642.8029785156" y="656.7795410156" type="line"/>
			<point x="652.4219970703" y="815.9382324219" type="line" smooth="yes"/>
			<point x="655.4219970703" y="867.9382324219"/>
			<point x="620.1349487305" y="924.9382324219"/>
			<point x="557.9678344727" y="924.9382324219" type="qcurve" smooth="yes"/>
			<point x="434.4666748047" y="924.9382324219"/>
			<point x="218.0202026367" y="693.9855957031"/>
			<point x="160.4884033203" y="440.3107299805" type="qcurve" smooth="yes"/>
			<point x="119.2661132812" y="260.0960693359"/>
			<point x="237.9693603516" y="61.6040039062"/>
			<point x="363.8165893555" y="61.6040039062" type="qcurve" smooth="yes"/>
			<point x="475.0291137695" y="61.6040039062"/>
			<point x="645.594909668" y="191.6354980469"/>
			<point x="700.2321777344" y="292.1750488281" type="qcurve"/>
			<point x="757.026184082" y="252" type="line"/>
			<point x="757.026184082" y="223" type="line"/>
			<point x="693.2764282227" y="100.2380371094"/>
			<point x="454.4239501953" y="-41"/>
			<point x="303.2361450195" y="-41" type="qcurve" smooth="yes"/>
			<point x="114.3521118164" y="-41"/>
			<point x="-48.8837280273" y="239.8340454102"/>
		</contour>
	</outline>
	<anchor name="bottom" x="343" y="0"/>
	<anchor name="top" x="600" y="1000"/>
</glyph>
<glyph name="f" format="2">
	<unicode hex="0066"/>
	<advance width="430"/>
	<outline>
		<contour>
			<point x="-334.8726196289" y="-399.0728759766" type="line" smooth="yes"/>
			<point x="-321.1455688477" y="-328.7276611328" type="line"/>
			<point x="-229.2415161133" y="-327.9097290039" type="line" smooth="yes"/>
			<point x="-114.5342407227" y="-326.8838500977"/>
			<point x="-78.2357788086" y="-245.7817993164"/>
			<point x="-29.6475830078" y="-6.8228149414" type="qcurve" smooth="yes"/>
			<point x="155.1071166992" y="888.0024414062" type="line"/>
			<point x="161.3863525391" y="918.0024414062" type="line"/>
			<point x="219.6544799805" y="1210.0827636719" type="line" smooth="yes"/>
			<point x="253.317565918" y="1384.3104858398"/>
			<point x="398.059387207" y="1523.0827636719"/>
			<point x="471.651550293" y="1523.0827636719" type="qcurve" smooth="yes"/>
			<point x="531.3265380859" y="1523.0827636719"/>
			<point x="624.9390258789" y="1462.7016601562"/>
			<point x="624.9390258789" y="1418.5427246094" type="qcurve" smooth="yes"/>
			<point x="624.9390258789" y="1374.3837890625"/>
			<point x="581.2020263672" y="1331.208984375"/>
			<point x="550.3765869141" y="1331.208984375" type="qcurve" smooth="yes"/>
			<point x="544.3765869141" y="1331.208984375"/>
			<point x="515.3765869141" y="1354.208984375"/>
			<point x="498.3765869141" y="1369.208984375" type="qcurve" smooth="yes"/>
			<point x="476.3765869141" y="1388.208984375"/>
			<point x="440.4467773438" y="1420.7329101562"/>
			<point x="441.1010742188" y="1420.7329101562" type="qcurve" smooth="yes"/>
			<point x="423.3732910156" y="1420.7329101562"/>
			<point x="390.8095092773" y="1324.0961914062"/>
			<point x="368.2805175781" y="1206.8725585938" type="qcurve" smooth="yes"/>
			<point x="311.9250488281" y="921.0024414062" type="line"/>
			<point x="308.1430053711" y="905.0024414062" type="line"/>
			<point x="147.6767578125" y="105.9271240234" type="line" smooth="yes"/>
			<point x="85.7023925781" y="-200.2147216797"/>
			<point x="-34.3552856445" y="-450.0728759766"/>
			<point x="-179.7138671875" y="-450.0728759766" type="qcurve"/>
		</contour>
		<contour>
			<point x="-4.4611206055" y="885.2556152344" type="line"/>
			<point x="9.6975708008" y="956.0024414062" type="line"/>
			<point x="182.3068847656" y="978.0024414062" type="line"/>
			<point x="471.9595336914" y="958.0024414062" type="line"/>
			<point x="444.1340942383" y="876.2556152344" type="line"/>
			<point x="237.7110595703" y="873.2556152344" type="line"/>
			<point x="210.2493896484" y="854.5248413086" type="line"/>
		</contour>
	</outline>
	<anchor name="bottom" x="217" y="0"/>
	<anchor name="top" x="554" y="1536"/>
</glyph>
<glyph name="h" format="2">
	<unicode hex="0068"/>
	<advance width="1131"/>
	<outline>
		<contour>
			<point x="14.4083862305" y="-29.3590087891" type="line"/>
			<point x="-30.0275268555" y="17.9358520508" type="line"/>
			<point x="128.8955688477" y="569.1409301758" type="line"/>
			<point x="291.6684570312" y="1407.3674316406" type="line"/>
			<point x="166.1770019531" y="1437.4580078125" type="line"/>
			<point x="188.7216796875" y="1510.0014648438" type="line"/>
			<point x="401.8394775391" y="1578.1681518555" type="line"/>
			<point x="457.8139648438" y="1520.3347167969" type="line"/>
			<point x="302.1137695312" y="655.2435913086" type="line"/>
			<point x="164.5753173828" y="128.2435913086" type="line"/>
			<point x="226.3317260742" y="28" type="line"/>
		</contour>
		<contour>
			<point x="688.7362060547" y="-17.4871826172" type="line"/>
			<point x="616.7233276367" y="85.7308959961" type="line"/>
			<point x="787.0801391602" y="720.0014648438" type="line" smooth="yes"/>
			<point x="808.8563232422" y="801.9299926758"/>
			<point x="756.4867553711" y="903.0014648438"/>
			<point x="672.0920410156" y="903.0014648438" type="qcurve" smooth="yes"/>
			<point x="569.6895751953" y="903.0014648438"/>
			<point x="311.4276123047" y="648.9814453125"/>
			<point x="233.8551025391" y="490.0014648438" type="qcurve"/>
			<point x="231.5646972656" y="603.0024414062" type="line"/>
			<point x="333.5363769531" y="783.2103881836"/>
			<point x="641.6671142578" y="1020.0024414062"/>
			<point x="754.5396118164" y="1020.0024414062" type="qcurve" smooth="yes"/>
			<point x="880.0415649414" y="1020.0024414062"/>
			<point x="985.1304931641" y="830.8826904297"/>
			<point x="945.3027954102" y="687.0024414062" type="qcurve" smooth="yes"/>
			<point x="789.0004272461" y="131.9975585938" type="line"/>
			<point x="965.9694213867" y="131.9975585938" type="line"/>
			<point x="963.9694213867" y="43" type="line"/>
		</contour>
	</outline>
	<anchor name="bottom" x="420" y="0"/>
	<anchor name="center" x="347" y="1202"/>
	<anchor name="top" x="424" y="1534"/>
</glyph>
<glyph name="k" format="2">
	<unicode hex="006B"/>
	<advance width="950"/>
	<outline>
		<contour>
			<point x="467.7028808594" y="471.9728393555" type="line"/>
			<point x="165.9505615234" y="234.6520996094" type="line"/>
			<point x="133.8780517578" y="300.5496826172" type="line"/>
			<point x="681.1859130859" y="726.7322387695" type="line"/>
			<point x="681.4813842773" y="801.1228027344"/>
			<point x="656.4935913086" y="894.3349609375"/>
			<point x="600.1951293945" y="894.3349609375" type="qcurve" smooth="yes"/>
			<point x="545.3809204102" y="894.3349609375"/>
			<point x="340.0006103516" y="671.7497558594"/>
			<point x="291.3460693359" y="572.3349609375" type="qcurve"/>
			<point x="283.7521972656" y="582.1915893555" type="line"/>
			<point x="189.5496826172" y="131.0641479492" type="line"/>
			<point x="248.8701782227" y="33.3333740234" type="line"/>
			<point x="40.6776123047" y="-23" type="line"/>
			<point x="-4.3223876953" y="24" type="line"/>
			<point x="136.6776123047" y="587" type="line"/>
			<point x="291.9633178711" y="1408.0798950195" type="line"/>
			<point x="166.1770019531" y="1439.0795898438" type="line"/>
			<point x="188.7216796875" y="1511.623046875" type="line"/>
			<point x="398.8907470703" y="1578.7897338867" type="line"/>
			<point x="454.865234375" y="1520.7127075195" type="line"/>
			<point x="314.0311279297" y="707.2163696289" type="line"/>
			<point x="368.8923950195" y="805.0183105469"/>
			<point x="583.8295898438" y="1018.0024414062"/>
			<point x="659.7094726562" y="1018.0024414062" type="qcurve" smooth="yes"/>
			<point x="742.1369628906" y="1018.0024414062"/>
			<point x="831.0328979492" y="897.3558349609"/>
			<point x="830.6386108398" y="835.5786743164" type="qcurve" smooth="yes"/>
			<point x="831.3320922852" y="757.9408569336" type="line"/>
			<point x="797.7875366211" y="706.8297729492" type="line"/>
			<point x="494.9974975586" y="484.7208862305" type="line"/>
		</contour>
		<contour>
			<point x="570.104675293" y="577.1817626953" type="line"/>
			<point x="715.9850463867" y="142.7412109375" type="line"/>
			<point x="851.2926025391" y="138.7412109375" type="line"/>
			<point x="849.2926025391" y="54.7436523438" type="line"/>
			<point x="685.2068481445" y="-1.3918457031" type="line" smooth="yes"/>
			<point x="649.7437744141" y="-13.0531616211"/>
			<point x="619.7083740234" y="5.5793457031"/>
			<point x="584.4833984375" y="92.6904907227" type="qcurve" smooth="yes"/>
			<point x="453.5323486328" y="501.7239990234" type="line"/>
		</contour>
	</outline>
	<anchor name="bottom" x="448" y="0"/>
	<anchor name="top" x="578" y="1534"/>
</glyph>
<glyph name="l" format="2">
	<unicode hex="006C"/>
	<advance width="520"/>
	<outline>
		<contour>
			<point x="51.1462402344" y="-23" type="line"/>
			<point x="-5.841003418" y="46.1411743164" type="line"/>
			<point x="123.4538574219" y="587" type="line"/>
			<point x="278.5216064453" y="1403.1707763672" type="line"/>
			<point x="161.7352905273" y="1438.0795898438" type="line"/>
			<point x="184.2799682617" y="1510.623046875" type="line"/>
			<point x="400.6926269531" y="1579.7640991211" type="line"/>
			<point x="456.6671142578" y="1522.9306640625" type="line"/>
			<point x="268.9669189453" y="568" type="line"/>
			<point x="175.4210205078" y="127.9975585938" type="line"/>
			<point x="353.5717773438" y="135.9975585938" type="line"/>
			<point x="351.5717773438" y="44" type="line"/>
		</contour>
	</outline>
	<anchor name="bottom" x="201" y="0"/>
	<anchor name="center" x="236" y="770"/>
	<anchor name="top" x="436" y="1534"/>
	<anchor name="topright" x="492" y="1000"/>
	<anchor name="centerright" x="707" y="742"/>
	<anchor name="liga" x="567" y="0"/>
</glyph>
<glyph name="m" format="2">
	<unicode hex="006D"/>
	<advance width="1745"/>
	<outline>
		<contour>
			<point x="30.4908447266" y="-30.3333740234" type="line"/>
			<point x="-13.9450683594" y="17.205078125" type="line"/>
			<point x="144.6226806641" y="584.3095092773" type="line"/>
			<point x="191.8089599609" y="860.1869506836" type="line"/>
			<point x="56.0032348633" y="860.1869506836" type="line"/>
			<point x="74.1849975586" y="966.0024414062" type="line"/>
			<point x="287.5591430664" y="998.0024414062" type="line"/>
			<point x="332.0848388672" y="998.0024414062" type="line"/>
			<point x="326.7288208008" y="735.8342285156" type="line"/>
			<point x="320.1101074219" y="639.3095092773" type="line"/>
			<point x="172.4910888672" y="124" type="line"/>
			<point x="234.4910888672" y="24" type="line"/>
		</contour>
		<contour>
			<point x="668.6792602539" y="-19.7564086914" type="line"/>
			<point x="608.6792602539" y="53.2435913086" type="line"/>
			<point x="791.2430419922" y="738.2450561523" type="line" smooth="yes"/>
			<point x="813.0350952148" y="820.4291381836"/>
			<point x="740.762512207" y="905.0014648438"/>
			<point x="672.0328979492" y="905.0014648438" type="qcurve" smooth="yes"/>
			<point x="575.8583984375" y="905.0014648438"/>
			<point x="325.5144042969" y="642.2277832031"/>
			<point x="261.0547485352" y="515.0014648438" type="qcurve"/>
			<point x="258.2771606445" y="618.0024414062" type="line"/>
			<point x="333.2926635742" y="750.0778198242"/>
			<point x="618.7861938477" y="1020.2460327148"/>
			<point x="761.5261230469" y="1020.2460327148" type="qcurve" smooth="yes"/>
			<point x="895.575012207" y="1020.2460327148"/>
			<point x="983.8860473633" y="838.8980712891"/>
			<point x="923.978515625" y="614.2460327148" type="qcurve" smooth="yes"/>
			<point x="798.1410522461" y="156.1539306641" type="line"/>
			<point x="893.012878418" y="29.3077392578" type="line"/>
		</contour>
		<contour>
			<point x="1305.2633666992" y="-19.1666870117" type="line"/>
			<point x="1229.2504882812" y="84.0513916016" type="line"/>
			<point x="1404.6475830078" y="738.0014648438" type="line" smooth="yes"/>
			<point x="1425.8157958984" y="817.7971191406"/>
			<point x="1353.7155151367" y="905.0014648438"/>
			<point x="1274.8135986328" y="905.0014648438" type="qcurve" smooth="yes"/>
			<point x="1190.0152587891" y="905.0014648438"/>
			<point x="929.5446166992" y="647.3432006836"/>
			<point x="863.7303466797" y="514.7578735352" type="qcurve"/>
			<point x="859.7348022461" y="618.0024414062" type="line"/>
			<point x="940.2018432617" y="758.80859375"/>
			<point x="1249.9943237305" y="1020.0024414062"/>
			<point x="1366.8296508789" y="1020.0024414062" type="qcurve" smooth="yes"/>
			<point x="1495.563659668" y="1020.0024414062"/>
			<point x="1601.6810302734" y="835.3190307617"/>
			<point x="1559.3830566406" y="687.0024414062" type="qcurve" smooth="yes"/>
			<point x="1403.0147705078" y="131.9975585938" type="line"/>
			<point x="1581.6889038086" y="131.9975585938" type="line"/>
			<point x="1579.6889038086" y="43" type="line"/>
		</contour>
	</outline>
	<anchor name="bottom" x="958" y="0"/>
	<anchor name="top" x="958" y="1000"/>
	<anchor name="cy_descender" x="1572" y="134"/>
</glyph>
<glyph name="n" format="2">
	<unicode hex="006E"/>
	<advance width="1107"/>
	<outline>
		<contour>
			<point x="32.0831298828" y="-24" type="line"/>
			<point x="-9.9168701172" y="20.8410644531" type="line"/>
			<point x="144.0036621094" y="584" type="line"/>
			<point x="194.3726196289" y="860.1869506836" type="line"/>
			<point x="56.3127441406" y="860.1869506836" type="line"/>
			<point x="74.1849975586" y="966.0024414062" type="line"/>
			<point x="285.3668212891" y="995.9229736328" type="line"/>
			<point x="332.0848388672" y="995.9229736328" type="line"/>
			<point x="322.7901000977" y="664.0024414062" type="line"/>
			<point x="320.00390625" y="638" type="line"/>
			<point x="179.0833740234" y="120.721862793" type="line"/>
			<point x="232.7655029297" y="26.9602661133" type="line"/>
		</contour>
		<contour>
			<point x="685.7947387695" y="-14.7125854492" type="line"/>
			<point x="631.1126098633" y="66" type="line"/>
			<point x="800.8000488281" y="707.6013183594" type="line" smooth="yes"/>
			<point x="821.861328125" y="787.8505249023"/>
			<point x="768.2638549805" y="883.5371704102"/>
			<point x="675.373046875" y="883.5371704102" type="qcurve" smooth="yes"/>
			<point x="567.3857421875" y="883.5371704102"/>
			<point x="314.2924804688" y="622.5750732422"/>
			<point x="257.0700683594" y="475.9685058594" type="qcurve"/>
			<point x="253.4712524414" y="599.0075073242" type="line"/>
			<point x="310.8940429688" y="757.2647705078"/>
			<point x="619.3279418945" y="1009.6018066406"/>
			<point x="732.9906616211" y="1009.6018066406" type="qcurve" smooth="yes"/>
			<point x="873.2864379883" y="1009.6018066406"/>
			<point x="997.7083740234" y="824.9321899414"/>
			<point x="962.4614257812" y="700.9315795898" type="qcurve" smooth="yes"/>
			<point x="804.6296386719" y="131.9975585938" type="line"/>
			<point x="981.6895141602" y="131.9975585938" type="line"/>
			<point x="979.6895141602" y="43" type="line"/>
		</contour>
	</outline>
	<anchor name="bottom" x="522" y="0"/>
	<anchor name="top" x="602" y="1000"/>
	<anchor name="liga" x="1173" y="0"/>
</glyph>
<glyph name="o" format="2">
	<unicode hex="006F"/>
	<advance width="1000"/>
	<outline>
		<contour>
			<point x="14.0805310677" y="546.4536743164" type="qcurve" smooth="yes"/>
			<point x="61.944197394" y="778.5131225586"/>
			<point x="381.5824420229" y="1026.8921508789"/>
			<point x="569.0439288393" y="1012.2016601562" type="qcurve" smooth="yes"/>
			<point x="779.4392535464" y="994.6320800781"/>
			<point x="949.9153888003" y="688.515625"/>
			<point x="899.0755261849" y="459.2392578125" type="qcurve" smooth="yes"/>
			<point x="852.5717608706" y="241.2915649414"/>
			<point x="535.7742144839" y="-28.19921875"/>
			<point x="345.91526673" y="-13.19921875" type="qcurve" smooth="yes"/>
			<point x="136.7078082339" y="3.1267700195"/>
			<point x="-33.1137249692" y="311.2029418945"/>
		</contour>
		<contour>
			<point x="178.8115491341" y="545.1441650391" type="qcurve" smooth="yes"/>
			<point x="130.8807877561" y="346.3002538672"/>
			<point x="215.4579114388" y="101.4499511719"/>
			<point x="367.0238294075" y="89.3251953125" type="qcurve" smooth="yes"/>
			<point x="533.0770520638" y="78.3251953125"/>
			<point x="705.6811892438" y="313.367213942"/>
			<point x="738.1265515755" y="474.3345336914" type="qcurve" smooth="yes"/>
			<point x="776.1722874109" y="657.0899733691"/>
			<point x="704.253687806" y="898.5661621094"/>
			<point x="547.636500306" y="911.5661621094" type="qcurve" smooth="yes"/>
			<point x="406.6858167122" y="923.5661621094"/>
			<point x="221.2274857938" y="724.3102233848"/>
		</contour>
	</outline>
	<anchor name="bottom" x="358" y="0"/>
	<anchor name="center" x="461" y="500"/>
	<anchor name="ogonek" x="514" y="0"/>
	<anchor name="top" x="584" y="1000"/>
	<anchor name="topright" x="663" y="1000"/>
	<anchor name="GRKtop" x="584" y="1000"/>
	<anchor name="yu_dash" x="83" y="498"/>
</glyph>
<glyph name="q" format="2">
	<unicode hex="0071"/>
	<advance width="984"/>
	<outline>
		<contour>
			<point x="-7.9577636719" y="235.8098144531" type="qcurve" smooth="yes"/>
			<point x="-4.1006469727" y="543.9776000977"/>
			<point x="328.9792480469" y="988.8601074219"/>
			<point x="534.3383789062" y="988.8601074219" type="qcurve" smooth="yes"/>
			<point x="589.624206543" y="988.8601074219"/>
			<point x="689.1958618164" y="947.8601074219"/>
			<point x="727.0531005859" y="925.8601074219" type="qcurve"/>
			<point x="775.0165405273" y="1032.8601074219" type="line"/>
			<point x="832.5935058594" y="1032.8601074219" type="line"/>
			<point x="874.9397583008" y="849.0009155273" type="line"/>
			<point x="769.3842773438" y="452" type="line"/>
			<point x="621.2456054688" y="-312.2285766602" type="line"/>
			<point x="719.7592773438" y="-345.5921020508" type="line"/>
			<point x="697.2145996094" y="-424.135559082" type="line"/>
			<point x="571.4558105469" y="-463.4945678711" type="line"/>
			<point x="453.3752441406" y="-360.6611328125" type="line"/>
			<point x="578.5250854492" y="175" type="line"/>
			<point x="565.5250854492" y="181" type="line"/>
			<point x="493.0059814453" y="84.2618408203"/>
			<point x="302.4535522461" y="-20"/>
			<point x="199.533203125" y="-20" type="qcurve" smooth="yes"/>
			<point x="104.2080078125" y="-20"/>
			<point x="-9.2434692383" y="120.4287719727"/>
		</contour>
		<contour>
			<point x="156.2543334961" y="273.22265625" type="qcurve" smooth="yes"/>
			<point x="154.9686279297" y="170.2782592773"/>
			<point x="226.8742675781" y="84.3815917969"/>
			<point x="268.8278808594" y="84.3815917969" type="qcurve" smooth="yes"/>
			<point x="363.54296875" y="84.3815917969"/>
			<point x="584.9096069336" y="257.2145996094"/>
			<point x="623.5446166992" y="443.8413085938" type="qcurve" smooth="yes"/>
			<point x="710.0926513672" y="815.6530761719" type="line"/>
			<point x="692.3783569336" y="839.6530761719"/>
			<point x="632.3532104492" y="887.6530761719"/>
			<point x="571.2096557617" y="887.6530761719" type="qcurve" smooth="yes"/>
			<point x="408.3516845703" y="887.6530761719"/>
			<point x="159.8257446289" y="517.8662719727"/>
		</contour>
	</outline>
	<anchor name="bottom" x="594" y="0"/>
	<anchor name="top" x="594" y="1000"/>
</glyph>
<glyph name="r" format="2">
	<unicode hex="0072"/>
	<advance width="800"/>
	<outline>
		<contour>
			<point x="54.3876953125" y="-22" type="line"/>
			<point x="17.6441650391" y="19.8589477539" type="line"/>
			<point x="137.8877563477" y="519.1281738281" type="line"/>
			<point x="191.2584228516" y="858.2863769531" type="line"/>
			<point x="46.4199829102" y="864.0118408203" type="line"/>
			<point x="67.6017456055" y="972.3029785156" type="line"/>
			<point x="304.9426269531" y="994.6086425781" type="line"/>
			<point x="339.2631225586" y="993.3906860352" type="line"/>
			<point x="361.5452270508" y="908.1448974609" type="line"/>
			<point x="286.1904296875" y="519.7822265625" type="line"/>
			<point x="207.6419677734" y="136.3450317383" type="line"/>
			<point x="350.1080932617" y="123.4116821289" type="line"/>
			<point x="351.3260498047" y="35.8500366211" type="line"/>
		</contour>
		<contour>
			<point x="663.4395751953" y="685.7997436523" type="line"/>
			<point x="678.2677612305" y="884.7319335938" type="line"/>
			<point x="596.2261205805" y="884.7288134488"/>
			<point x="392.0458138727" y="703.0486994194"/>
			<point x="241.4393920898" y="476.51953125" type="qcurve"/>
			<point x="255.2900390625" y="590.6910400391" type="line"/>
			<point x="384.1058096094" y="790.795663849"/>
			<point x="626.8258068882" y="1011.7081298828"/>
			<point x="727.9005126953" y="1011.7081298828" type="qcurve" smooth="yes"/>
			<point x="778.3508049859" y="1011.7081298828"/>
			<point x="836.4973754883" y="957.3567047119"/>
			<point x="836.4973754883" y="894.6888427734" type="qcurve" smooth="yes"/>
			<point x="836.4973754883" y="814.0370461799"/>
			<point x="751.1969164273" y="682.7677620283"/>
			<point x="689.2227172852" y="682.1458740234" type="qcurve" smooth="yes"/>
		</contour>
	</outline>
	<anchor name="bottom" x="282" y="0"/>
	<anchor name="top" x="486" y="1000"/>
</glyph>
<glyph name="s" format="2">
	<unicode hex="0073"/>
	<advance width="740"/>
	<outline>
		<contour>
			<point x="-43.6493530273" y="170" type="qcurve" smooth="yes"/>
			<point x="-43.6493530273" y="245"/>
			<point x="40.0559082031" y="321"/>
			<point x="91.6970214844" y="321" type="qcurve" smooth="yes"/>
			<point x="125.5688476562" y="321" type="line"/>
			<point x="125.5688476562" y="141.095703125" type="line" smooth="yes"/>
			<point x="125.5688476562" y="96.1115722656"/>
			<point x="191.8653564453" y="74.5471191406"/>
			<point x="280.9626464844" y="74.5471191406" type="qcurve" smooth="yes"/>
			<point x="383.6982421875" y="74.5471191406"/>
			<point x="526.610534668" y="151.2922363281"/>
			<point x="526.610534668" y="221.516418457" type="qcurve" smooth="yes"/>
			<point x="526.610534668" y="279.871887207"/>
			<point x="450.137512207" y="358.4378051758"/>
			<point x="312.7233886719" y="449.0573120117" type="qcurve" smooth="yes"/>
			<point x="180.7607421875" y="541.3502197266"/>
			<point x="85.3128051758" y="659.8385620117"/>
			<point x="85.5563964844" y="768.6060791016" type="qcurve" smooth="yes"/>
			<point x="85.799987793" y="872.1979370117"/>
			<point x="269.2305297852" y="1017.2016601562"/>
			<point x="423.8266601562" y="1017.2016601562" type="qcurve" smooth="yes"/>
			<point x="563.0340576172" y="1017.2016601562"/>
			<point x="722.9922485352" y="933.0024414062"/>
			<point x="722.9922485352" y="856.0024414062" type="qcurve" smooth="yes"/>
			<point x="722.9922485352" y="791.6929321289"/>
			<point x="644.7614135742" y="739.0024414062"/>
			<point x="608.0690307617" y="739.0024414062" type="qcurve" smooth="yes"/>
			<point x="564.4664306641" y="739.0024414062" type="line"/>
			<point x="557.4022827148" y="827.911315918" type="line" smooth="yes"/>
			<point x="557.4022827148" y="880.5422973633"/>
			<point x="502.7337036133" y="921.4235839844"/>
			<point x="408.1279296875" y="921.4235839844" type="qcurve" smooth="yes"/>
			<point x="329.6701049805" y="921.4235839844"/>
			<point x="223.9411621094" y="867.6844482422"/>
			<point x="223.9411621094" y="807.7659912109" type="qcurve" smooth="yes"/>
			<point x="223.9411621094" y="743.5858764648"/>
			<point x="322.9063110352" y="653.7377319336"/>
			<point x="419.9024658203" y="583.0346679688" type="qcurve" smooth="yes"/>
			<point x="545.6097412109" y="496.6910400391"/>
			<point x="663.0465698242" y="364.5326538086"/>
			<point x="663.0465698242" y="262.4052124023" type="qcurve"/>
			<point x="662.9099121094" y="138.0936889648"/>
			<point x="444.7653198242" y="-20.19921875"/>
			<point x="259.3444824219" y="-20.19921875" type="qcurve" smooth="yes"/>
			<point x="114.1475219727" y="-20.19921875"/>
			<point x="-43.6493530273" y="78"/>
		</contour>
	</outline>
	<anchor name="bottom" x="282" y="0"/>
	<anchor name="top" x="446" y="1000"/>
</glyph>
<glyph name="u" format="2">
	<unicode hex="0075"/>
	<advance width="1150"/>
	<outline>
		<contour>
			<point x="728.789855957" y="-16" type="line"/>
			<point x="684.0205688477" y="88.4616699219" type="line"/>
			<point x="683.2669067383" y="262" type="line"/>
			<point x="829.9110717773" y="892.0042114258" type="line"/>
			<point x="779.4238891602" y="981.7093505859" type="line"/>
			<point x="951.9369506836" y="1016.3119506836" type="line"/>
			<point x="1007.1036376953" y="932.3119506836" type="line"/>
			<point x="843.5620117188" y="296" type="line"/>
			<point x="812.9167480469" y="127.9066772461" type="line"/>
			<point x="986.4310302734" y="132.9066772461" type="line"/>
			<point x="984.6127929688" y="43" type="line"/>
		</contour>
		<contour>
			<point x="52.8256225586" y="276" type="qcurve" smooth="yes"/>
			<point x="197.6048583984" y="863.5873413086" type="line"/>
			<point x="36.5449829102" y="861.5873413086" type="line"/>
			<point x="48.7267456055" y="964.3119506836" type="line"/>
			<point x="233.5368041992" y="996.3119506836" type="line"/>
			<point x="312.0368652344" y="996.3119506836" type="line"/>
			<point x="362.2677001953" y="908.0682373047" type="line"/>
			<point x="206.5457763672" y="260.2705078125" type="line" smooth="yes"/>
			<point x="185.5299072266" y="171.2705078125"/>
			<point x="258.0190429688" y="85.0798339844"/>
			<point x="336.0576171875" y="85.0798339844" type="qcurve" smooth="yes"/>
			<point x="430.196472168" y="85.0798339844"/>
			<point x="714.3574829102" y="276.9635620117"/>
			<point x="787.3024291992" y="387.9539794922" type="qcurve"/>
			<point x="798.7482910156" y="300.1893920898" type="line"/>
			<point x="734.9652709961" y="199.4463500977"/>
			<point x="433.3941040039" y="-19"/>
			<point x="282.5175170898" y="-19" type="qcurve" smooth="yes"/>
			<point x="155.5306396484" y="-19"/>
			<point x="15.6433105469" y="123.376159668"/>
		</contour>
	</outline>
	<anchor name="bottom" x="404" y="0"/>
	<anchor name="ogonek" x="871" y="20"/>
	<anchor name="top" x="572" y="1000"/>
	<anchor name="topright" x="915" y="1000"/>
	<anchor name="cy_descender" x="1018" y="134"/>
</glyph>
<glyph name="v" format="2">
	<unicode hex="0076"/>
	<advance width="903"/>
	<outline>
		<contour>
			<point x="263.8259277344" y="-7.3995361328" type="line"/>
			<point x="193.259765625" y="482.3400268555" type="line"/>
			<point x="139.5444335938" y="860.2611083984" type="line"/>
			<point x="33.9097900391" y="860.6246337891" type="line"/>
			<point x="36.0915527344" y="958.4401245117" type="line"/>
			<point x="175.9913330078" y="998.3119506836" type="line"/>
			<point x="282.51171875" y="998.3119506836" type="line"/>
			<point x="346.9212036133" y="532.0248413086" type="line"/>
			<point x="384.7835083008" y="287.9954833984" type="line"/>
			<point x="395.8866577148" y="175.5601806641" type="line"/>
			<point x="404.8413696289" y="175.5601806641" type="line"/>
			<point x="489.6665649414" y="297.3784179688" type="line"/>
			<point x="608.8393554688" y="474.8287963867"/>
			<point x="711.6309814453" y="651.2146606445"/>
			<point x="711.6309814453" y="740.3727416992" type="qcurve" smooth="yes"/>
			<point x="711.6309814453" y="819.7625732422"/>
			<point x="604.6083984375" y="892.8960571289"/>
			<point x="604.6083984375" y="937.2037963867" type="qcurve" smooth="yes"/>
			<point x="604.6083984375" y="970.8236083984"/>
			<point x="646.0720214844" y="1020.2461547852"/>
			<point x="693.2365112305" y="1020.2461547852" type="qcurve" smooth="yes"/>
			<point x="749.2313232422" y="1020.2461547852"/>
			<point x="825.8335571289" y="911.5513305664"/>
			<point x="825.8335571289" y="824.30859375" type="qcurve" smooth="yes"/>
			<point x="825.8335571289" y="717.5075683594"/>
			<point x="610.3735961914" y="367.0215454102"/>
			<point x="339.9514770508" y="-12.3995361328" type="qcurve"/>
		</contour>
	</outline>
	<anchor name="bottom" x="513" y="0"/>
	<anchor name="top" x="513" y="1000"/>
</glyph>
<glyph name="x" format="2">
	<unicode hex="0078"/>
	<advance width="1131"/>
	<outline>
		<contour>
			<point x="193.7577514648" y="-11.1995849609" type="qcurve"/>
			<point x="48.2588500977" y="50.8004150391" type="line"/>
			<point x="58.4403076172" y="134.4341430664" type="line"/>
			<point x="227.2100219727" y="134.4341430664" type="line" smooth="yes"/>
			<point x="254.1695556641" y="133.7386474609"/>
			<point x="311.2581787109" y="174.4381103516"/>
			<point x="361.7298583984" y="233.517578125" type="qcurve" smooth="yes"/>
			<point x="403.231262207" y="281.1454467773"/>
			<point x="456.9418945312" y="388.9432983398"/>
			<point x="507.6450805664" y="475.5133666992" type="qcurve"/>
			<point x="341.0540161133" y="884.9314575195" type="line"/>
			<point x="232.9956665039" y="870.5679321289" type="line"/>
			<point x="244.1774291992" y="964.3834228516" type="line"/>
			<point x="413.8465576172" y="1012.3834228516" type="line"/>
			<point x="481.6799926758" y="993.3834228516" type="line"/>
			<point x="575.1108398438" y="738.3887329102" type="line"/>
			<point x="599.0426025391" y="654.2978515625" type="line"/>
			<point x="605.0426025391" y="654.2978515625" type="line"/>
			<point x="650.5147094727" y="741.2769165039" type="line" smooth="yes"/>
			<point x="705.9014282227" y="834.4107055664"/>
			<point x="724.6060180664" y="884.5560913086"/>
			<point x="751.0697631836" y="912.223815918" type="qcurve" smooth="yes"/>
			<point x="792.8936767578" y="959.2839355469"/>
			<point x="882.3016357422" y="1006.5830078125"/>
			<point x="921.783996582" y="1006.5830078125" type="qcurve" smooth="yes"/>
			<point x="983.3716430664" y="1006.5830078125"/>
			<point x="1043.8602905273" y="928.5830078125"/>
			<point x="1043.8602905273" y="868.5830078125" type="qcurve" smooth="yes"/>
			<point x="1043.8602905273" y="800.5830078125"/>
			<point x="971.4512329102" y="721.5830078125"/>
			<point x="912.4512329102" y="721.5830078125" type="qcurve"/>
			<point x="898.4512329102" y="733.5830078125" type="line"/>
			<point x="898.1557617188" y="825.7648925781" type="line" smooth="yes"/>
			<point x="897.8602905273" y="842.5830078125"/>
			<point x="877.4512329102" y="873.5830078125"/>
			<point x="856.3082885742" y="873.5830078125" type="qcurve" smooth="yes"/>
			<point x="822.3797607422" y="873.5830078125"/>
			<point x="759.0756835938" y="827.9545288086"/>
			<point x="735.6743164062" y="788.3329467773" type="qcurve" smooth="yes"/>
			<point x="720.610534668" y="760.6539306641"/>
			<point x="708.830871582" y="701.9587402344"/>
			<point x="635.9911499023" y="573.1483154297" type="qcurve"/>
			<point x="807.711730957" y="129.9975585938" type="line"/>
			<point x="919.4065551758" y="132.9975585938" type="line"/>
			<point x="919.4065551758" y="44" type="line"/>
			<point x="758.216796875" y="-16.7498168945" type="line"/>
			<point x="673.5756835938" y="29.2501831055" type="line"/>
			<point x="567.8454589844" y="305.2399291992" type="line"/>
			<point x="539.1170043945" y="396.7777099609" type="line"/>
			<point x="533.1170043945" y="396.7777099609" type="line"/>
			<point x="482.5082397461" y="303.3022460938" type="line"/>
			<point x="450.1654663086" y="252.9667358398"/>
			<point x="420.5360717773" y="175.6627807617"/>
			<point x="383.2947387695" y="123.8780517578" type="qcurve" smooth="yes"/>
			<point x="335.3817749023" y="54.6751098633"/>
			<point x="247.3772583008" y="-11.0885009766"/>
		</contour>
	</outline>
	<anchor name="bottom" x="522" y="0"/>
	<anchor name="top" x="522" y="1000"/>
	<anchor name="cy_descender" x="832" y="134"/>
	<anchor name="center" x="432" y="502"/>
</glyph>
<glyph name="y" format="2">
	<unicode hex="0079"/>
	<advance width="940"/>
	<outline>
		<contour>
			<point x="-153.1354370117" y="-385.4105834961" type="line"/>
			<point x="-149.1354370117" y="-325.4105834961" type="line"/>
			<point x="-7.6142578125" y="-323.4105834961" type="line" smooth="yes"/>
			<point x="104.1348266602" y="-321.4105834961"/>
			<point x="275.474609375" y="-174.2048950195"/>
			<point x="339.8296508789" y="-71.0452880859" type="qcurve" smooth="yes"/>
			<point x="386.8781738281" y="0" type="line"/>
			<point x="369.0960083008" y="1" type="line"/>
			<point x="308.4341430664" y="284"/>
			<point x="198.5709228516" y="687.4964599609"/>
			<point x="149.8204956055" y="866.4964599609" type="qcurve"/>
			<point x="45.3071289062" y="866.4964599609" type="line"/>
			<point x="47.4888916016" y="964.3119506836" type="line"/>
			<point x="206.5426635742" y="1001.3119506836" type="line"/>
			<point x="283.6709594727" y="1001.3119506836" type="line"/>
			<point x="320.6709594727" y="904.3119506836" type="line"/>
			<point x="462.3223876953" y="287.9124145508" type="line"/>
			<point x="487.2272338867" y="141.5906982422" type="line"/>
			<point x="493.2272338867" y="141.5906982422" type="line"/>
			<point x="584.6696166992" y="292.2723388672" type="line" smooth="yes"/>
			<point x="706.7756958008" y="502.2901000977"/>
			<point x="700.0056762695" y="669.8052978516"/>
			<point x="699.0852661133" y="759.7735595703" type="qcurve" smooth="yes"/>
			<point x="698.5298461914" y="824.7418212891"/>
			<point x="604.5289916992" y="892.2498779297"/>
			<point x="604.5289916992" y="936.2498779297" type="qcurve" smooth="yes"/>
			<point x="604.5289916992" y="972.2498779297"/>
			<point x="650.1572265625" y="1014.2498779297"/>
			<point x="696.3495483398" y="1014.2498779297" type="qcurve" smooth="yes"/>
			<point x="757.2213745117" y="1014.2498779297"/>
			<point x="833.1317138672" y="927.2498779297"/>
			<point x="833.1317138672" y="829.2498779297" type="qcurve" smooth="yes"/>
			<point x="833.1317138672" y="698.6373901367"/>
			<point x="669.5881347656" y="304.1546630859"/>
			<point x="437.8085327148" y="-30.8864135742" type="qcurve" smooth="yes"/>
			<point x="417.6556396484" y="-64" type="line" smooth="yes"/>
			<point x="289.7496337891" y="-253.5850830078"/>
			<point x="76.5654907227" y="-442.4105834961"/>
			<point x="-43.0025024414" y="-442.4105834961" type="qcurve"/>
		</contour>
	</outline>
	<anchor name="bottom" x="782" y="0"/>
	<anchor name="top" x="504" y="1000"/>
</glyph>
<glyph name="z" format="2">
	<unicode hex="007A"/>
	<advance width="617"/>
	<outline>
		<contour>
			<point x="-119.1549072266" y="-12.4287109375" type="line"/>
			<point x="-144.9963378906" y="46" type="line"/>
			<point x="-45.0347900391" y="154.9763793945"/>
			<point x="173.2731933594" y="453.3579711914"/>
			<point x="235.4440307617" y="531.5089111328" type="qcurve" smooth="yes"/>
			<point x="293.7181396484" y="602.1997680664"/>
			<point x="437.3421020508" y="782.3314208984"/>
			<point x="485.0131835938" y="853.1176147461" type="qcurve"/>
			<point x="150.7196655273" y="848.1432495117" type="line"/>
			<point x="104.4396362305" y="755.001953125" type="line"/>
			<point x="1.1600952148" y="755.001953125" type="line"/>
			<point x="51.1068725586" y="967.0024414062" type="line"/>
			<point x="99.1068725586" y="997.0024414062" type="line"/>
			<point x="629.5662231445" y="997.0024414062" type="line"/>
			<point x="648.629699707" y="935.0024414062" type="line"/>
			<point x="588.8695068359" y="842.2162475586"/>
			<point x="366.4576416016" y="549.7790527344"/>
			<point x="304.0791015625" y="469.3343505859" type="qcurve" smooth="yes"/>
			<point x="239.6616210938" y="389.0484619141"/>
			<point x="122.7075805664" y="249.0497436523"/>
			<point x="69.8715209961" y="194.5258178711" type="qcurve"/>
			<point x="446.2305908203" y="138.3548583984" type="line"/>
			<point x="512.5634155273" y="266.2833251953" type="line"/>
			<point x="600.3956298828" y="241.4315795898" type="line"/>
			<point x="515.704284668" y="-1" type="line"/>
			<point x="477.704284668" y="-20" type="line"/>
			<point x="-36.5831298828" y="63.8413085938" type="line"/>
		</contour>
	</outline>
	<anchor name="bottom" x="443" y="0"/>
	<anchor name="top" x="463" y="1000"/>
	<anchor name="_liga" x="0" y="0"/>
</glyph>
